<?xml version="1.0" standalone="no"?>
<!DOCTYPE svg PUBLIC "-//W3C//DTD SVG 20010904//EN"
 "http://www.w3.org/TR/2001/REC-SVG-20010904/DTD/svg10.dtd">
<svg version="1.0" xmlns="http://www.w3.org/2000/svg"
 width="1083.000000pt" height="1067.000000pt" viewBox="0 0 1083.000000 1067.000000"
 preserveAspectRatio="xMidYMid meet">

<g transform="translate(0.000000,1067.000000) scale(0.100000,-0.100000)"
fill="#000000" stroke="none">
<path d="M3898 8991 c-32 -28 -37 -28 -183 -36 -114 -5 -161 -12 -200 -27 -27
-11 -97 -31 -155 -43 -102 -23 -106 -25 -149 -71 -77 -86 -166 -218 -240 -359
-29 -55 -99 -167 -155 -250 -193 -283 -259 -406 -241 -453 3 -8 0 -19 -6 -23
-17 -10 -2 -73 25 -106 40 -48 55 -88 72 -190 20 -123 14 -263 -15 -353 -11
-36 -30 -99 -41 -140 -12 -41 -36 -100 -54 -130 -18 -30 -43 -80 -54 -111 -11
-31 -37 -87 -57 -125 -44 -83 -42 -112 16 -196 21 -32 57 -84 79 -116 22 -32
77 -92 122 -132 46 -40 122 -113 169 -161 108 -111 157 -132 175 -76 5 17 0
26 -22 42 -16 11 -58 50 -92 87 -35 37 -104 101 -152 143 -60 52 -112 109
-161 177 -98 137 -100 143 -63 204 17 27 36 65 43 84 8 19 38 85 67 145 30 61
63 144 73 185 11 41 29 111 40 154 25 95 27 192 5 329 -17 104 -34 151 -86
229 -22 34 -28 51 -21 60 6 7 13 29 17 48 8 44 59 129 209 355 66 99 149 234
185 300 68 125 231 350 260 359 9 3 53 12 97 20 44 8 100 24 125 35 35 15 77
21 185 26 77 3 151 8 164 11 19 4 22 2 16 -13 -3 -10 -12 -59 -17 -109 -13
-108 8 -342 43 -465 11 -41 34 -126 50 -189 16 -63 43 -158 59 -210 16 -52 40
-133 54 -180 14 -47 28 -94 31 -105 4 -11 -14 11 -40 49 -26 38 -66 87 -89
110 -36 37 -196 169 -265 220 -14 11 -59 51 -98 89 -40 38 -78 67 -85 65 -32
-11 -33 -38 -4 -116 105 -283 100 -265 104 -420 l4 -143 -44 48 c-49 52 -114
145 -146 208 -11 22 -41 68 -66 103 -27 37 -40 62 -32 62 19 0 36 23 27 38 -9
15 -102 47 -210 73 -46 11 -101 29 -121 40 -20 12 -46 19 -56 17 -29 -5 -29
-58 -1 -125 40 -95 78 -213 96 -303 10 -47 30 -120 45 -162 35 -104 58 -333
63 -638 3 -201 1 -247 -15 -320 -32 -146 -74 -304 -88 -333 -19 -39 -18 -54 6
-67 16 -9 23 -6 37 12 23 29 95 102 198 199 132 125 483 485 600 616 71 81
120 126 140 132 16 6 73 21 125 35 214 56 460 125 470 131 44 27 484 20 590
-10 30 -8 102 -18 160 -21 58 -3 119 -7 137 -10 l31 -5 6 -97 c4 -53 8 -116
10 -139 3 -39 2 -43 -20 -43 -37 0 -57 -28 -50 -69 3 -20 6 -43 6 -52 0 -9 9
-26 20 -39 11 -13 20 -36 20 -51 0 -42 39 -138 61 -149 13 -8 25 -7 40 1 21
11 21 15 15 148 -4 75 -11 177 -16 226 -5 50 -12 131 -15 180 l-6 90 48 19
c30 12 78 48 128 95 44 42 91 85 103 96 l24 20 -3 -187 -3 -187 -27 -20 c-26
-20 -27 -22 -34 -180 -6 -139 -5 -166 9 -196 19 -40 47 -45 85 -16 35 26 39
78 40 421 1 162 4 333 8 380 l6 84 116 116 c112 111 261 249 305 280 31 23
137 129 164 164 51 69 122 114 234 150 127 42 140 47 449 183 129 56 240 103
247 103 6 0 26 -9 44 -20 18 -10 62 -26 98 -35 179 -44 188 -47 223 -84 19
-20 53 -71 76 -113 37 -69 40 -78 23 -78 -54 0 -324 -235 -403 -352 -22 -32
-45 -58 -52 -58 -7 0 -46 -15 -88 -33 l-76 -33 -16 55 c-18 64 -126 389 -137
411 -13 27 -47 23 -66 -7 -10 -15 -34 -46 -54 -68 -20 -22 -56 -69 -79 -105
-24 -36 -66 -88 -94 -117 l-50 -51 -40 81 c-22 45 -39 92 -38 104 3 28 -42 54
-61 35 -7 -7 -20 -12 -29 -12 -21 0 -83 -73 -103 -122 -9 -20 -45 -62 -81 -95
-36 -33 -65 -67 -65 -74 0 -28 18 -41 63 -46 46 -4 47 -4 79 43 18 27 51 68
72 91 l39 44 29 -73 c16 -40 33 -77 37 -83 5 -6 0 -24 -13 -41 -60 -90 -154
-217 -206 -284 -138 -174 -230 -298 -250 -338 -23 -44 -21 -72 4 -72 19 0 342
401 465 578 24 34 48 62 53 62 21 0 48 -22 48 -38 0 -23 19 -42 41 -42 17 0
69 32 219 132 l84 58 18 -46 18 -46 -47 -41 c-146 -124 -255 -268 -417 -550
-92 -161 -116 -231 -100 -295 7 -27 14 -37 29 -37 16 0 21 9 27 47 8 58 41
132 120 268 123 211 209 332 308 431 l96 98 50 -2 c48 -2 49 -2 52 30 3 27 11
38 45 57 23 14 54 28 70 31 26 7 27 6 17 -20 -23 -60 -60 -235 -69 -327 -9
-90 -14 -106 -66 -206 -31 -60 -92 -156 -135 -214 -87 -117 -241 -275 -308
-315 -27 -16 -42 -31 -40 -42 6 -28 38 -24 114 13 59 30 88 53 151 122 91 101
177 214 229 302 20 34 38 61 40 59 2 -2 -1 -43 -6 -93 -5 -49 -14 -161 -20
-249 -11 -176 -29 -258 -79 -352 -45 -84 -103 -158 -128 -161 -30 -4 -46 -28
-39 -56 8 -32 38 -41 75 -22 40 21 124 134 171 231 51 106 68 188 80 391 6 93
15 205 20 249 6 44 10 118 10 165 0 66 7 106 30 180 24 74 30 112 30 180 0 92
20 179 46 200 18 16 178 19 267 7 54 -8 58 -7 55 9 -4 24 -155 73 -227 74
l-54 0 49 53 c26 28 106 107 178 174 124 116 131 121 149 106 23 -22 51 -7 55
29 4 31 -76 186 -128 248 -26 32 -41 63 -49 100 -17 81 -55 158 -86 172 -32
15 -85 2 -178 -42 -35 -16 -69 -30 -75 -30 -6 0 -139 -56 -294 -124 -156 -68
-341 -144 -413 -169 -71 -25 -144 -52 -160 -59 -35 -15 -107 -71 -139 -108
-30 -35 -94 -97 -221 -213 -60 -55 -158 -147 -217 -203 -90 -86 -107 -98 -103
-76 69 413 191 781 358 1074 66 117 75 138 58 138 -14 0 -196 -268 -234 -345
-115 -232 -220 -600 -257 -905 l-10 -85 -108 -108 c-103 -105 -185 -167 -200
-152 -4 4 -7 140 -6 303 1 417 30 642 115 897 62 188 109 274 195 364 41 43
74 81 74 85 0 21 -52 -12 -139 -89 -53 -47 -124 -163 -169 -276 -104 -257
-142 -533 -142 -1014 l0 -280 -117 3 c-115 3 -151 8 -243 33 -30 9 -127 13
-293 13 l-247 1 6 65 c17 196 44 375 63 409 18 32 141 -326 141 -411 0 -45 25
-63 46 -33 40 54 -2 243 -101 452 -25 52 -45 101 -45 108 0 30 90 205 153 298
67 98 76 117 57 117 -16 0 -209 -238 -233 -286 -11 -24 -23 -44 -27 -44 -8 0
-80 119 -80 133 0 35 137 261 243 402 73 96 253 309 296 349 29 28 41 56 23
56 -10 0 -247 -216 -282 -256 -127 -148 -198 -248 -276 -388 -26 -47 -51 -86
-55 -86 -3 0 -19 19 -34 43 -42 63 -418 527 -427 527 -16 0 -7 -26 20 -60 94
-116 254 -337 326 -451 l84 -132 -34 -80 c-85 -199 -172 -474 -189 -602 l-7
-50 -21 30 c-12 17 -41 50 -64 75 -54 59 -85 123 -117 240 -14 52 -34 118 -45
145 -10 28 -31 102 -45 166 -14 64 -37 151 -51 193 -58 177 -77 463 -42 619
19 84 15 122 -13 137 -25 14 -25 14 -62 -19z"/>
<path d="M3720 8765 c0 -8 4 -15 10 -15 5 0 7 7 4 15 -4 8 -8 15 -10 15 -2 0
-4 -7 -4 -15z"/>
<path d="M3360 8070 c0 -5 5 -10 10 -10 6 0 10 5 10 10 0 6 -4 10 -10 10 -5 0
-10 -4 -10 -10z"/>
<path d="M8380 7591 c-5 -11 -10 -39 -10 -63 -1 -90 -104 -274 -202 -362 -72
-64 -71 -74 7 -131 96 -70 168 -180 181 -278 5 -36 2 -53 -15 -80 -11 -19 -21
-39 -21 -45 0 -19 32 -43 50 -37 10 3 21 1 25 -5 10 -17 51 -11 70 10 15 17
16 24 5 49 -29 70 83 290 198 390 34 30 62 61 62 70 0 23 -30 69 -131 203 -84
112 -101 146 -114 230 -3 21 -13 44 -21 53 -22 22 -71 19 -84 -4z m73 -210 c9
-16 55 -80 102 -142 l85 -112 -54 -57 c-57 -60 -118 -148 -143 -208 l-15 -36
-28 60 c-30 61 -95 145 -150 191 l-31 26 35 36 c39 40 127 174 153 234 9 20
20 37 23 37 3 0 13 -13 23 -29z"/>
<path d="M5846 7041 c-3 -5 1 -11 9 -14 9 -4 12 -1 8 9 -6 16 -10 17 -17 5z"/>
<path d="M3466 6251 c-3 -5 -1 -16 6 -23 20 -21 38 -56 38 -73 0 -8 2 -15 4
-15 2 0 11 -3 20 -6 12 -5 16 0 16 20 0 14 -4 26 -10 26 -5 0 -10 7 -10 15 0
8 -4 15 -10 15 -5 0 -9 5 -7 11 3 15 -40 43 -47 30z"/>
<path d="M7105 6117 c-8 -19 24 -89 88 -196 61 -101 94 -191 132 -356 34 -151
33 -177 -10 -229 -44 -54 -44 -82 -1 -132 l34 -40 -255 -130 c-321 -162 -473
-244 -518 -278 -35 -27 -46 -62 -22 -71 6 -3 145 64 308 147 381 197 517 263
524 257 3 -3 -2 -28 -10 -55 -15 -50 -20 -140 -9 -168 4 -9 18 -16 34 -16 59
0 36 -18 -88 -70 -124 -52 -392 -181 -462 -223 -64 -37 -120 -88 -120 -108 0
-10 6 -19 14 -19 13 0 154 70 221 110 93 56 525 240 562 240 22 0 83 -144 83
-196 0 -41 -7 -54 -74 -138 l-74 -93 -184 -68 c-241 -88 -400 -150 -437 -170
-33 -16 -41 -42 -17 -51 22 -9 147 29 352 106 103 38 189 70 191 70 2 0 -6
-14 -19 -31 -42 -56 -58 -84 -58 -102 0 -25 30 -34 46 -13 9 14 35 19 116 25
56 5 154 20 217 35 62 15 115 25 117 23 10 -10 -82 -131 -124 -162 -35 -28
-54 -35 -89 -35 -60 0 -83 -14 -83 -50 0 -20 8 -35 25 -46 28 -18 176 -34 343
-35 l112 -1 -36 -66 c-51 -94 -87 -144 -128 -180 -37 -32 -97 -55 -122 -45
-19 7 -46 -16 -40 -34 4 -10 -1 -12 -19 -7 -13 3 -33 3 -45 -1 -30 -10 -23
-47 11 -56 15 -4 55 -20 90 -37 35 -17 99 -46 141 -65 87 -40 82 -30 93 -182
3 -44 15 -170 27 -280 14 -132 21 -277 22 -427 1 -172 4 -228 13 -228 14 0 37
74 54 175 14 80 10 152 -27 568 -14 159 -23 291 -20 294 3 3 62 -22 131 -55
69 -34 129 -61 133 -62 39 -2 -112 118 -220 176 -60 31 -68 39 -68 64 0 37 -26
65 -46 49 -8 -6 -14 -18 -14 -25 0 -8 -4 -14 -9 -14 -20 0 -174 79 -156 79 60
3 144 67 207 159 48 69 198 370 198 397 0 29 -28 47 -53 34 -9 -5 -29 -31 -43
-57 -58 -100 -82 -109 -259 -97 l-104 7 37 31 c75 65 152 182 152 233 0 71
-51 74 -291 15 -90 -22 -164 -39 -165 -38 -1 1 23 30 54 65 64 70 68 72 389
178 274 90 392 114 570 114 148 0 247 -18 358 -66 82 -34 105 -40 105 -26 0 21
-229 131 -305 147 -98 21 -281 19 -405 -5 -103 -20 -366 -97 -493 -145 -37 -14
-70 -23 -73 -20 -3 4 -1 9 5 13 5 4 23 25 40 46 26 35 29 47 28 110 0 60 -6 83
-36 148 l-37 78 67 19 c233 69 527 108 872 118 240 6 459 -6 589 -33 73 -15
224 -64 303 -98 45 -19 48 -20 48 -2 0 15 -158 88 -305 141 -135 49 -238 60
-565 60 -410 0 -688 -34 -982 -119 l-88 -26 -56 28 -56 27 6 45 c3 25 9 71 12
103 l7 58 56 26 c111 50 550 216 721 273 392 131 769 216 1340 304 124 19 254
37 290 41 106 10 140 16 140 26 0 5 -81 9 -188 9 -209 0 -357 -17 -672 -76
-571 -108 -999 -236 -1578 -475 -78 -33 -146 -59 -150 -58 -4 0 -20 16 -35 35
l-29 34 25 30 c56 66 57 105 7 317 -48 202 -85 281 -218 468 -29 42 -58 56 -67
32z"/>
<path d="M4115 6010 c-82 -10 -153 -26 -217 -48 -272 -99 -398 -155 -521 -234
-32 -20 -63 -38 -69 -40 -6 -2 -2 -20 11 -46 12 -23 22 -42 24 -42 1 0 97 47
212 104 116 57 211 102 213 101 2 -2 -7 -23 -19 -47 -47 -91 -34 -308 23 -392
47 -69 115 -129 193 -169 79 -41 81 -41 205 -45 124 -4 125 -4 185 28 33 18
98 49 145 69 47 20 119 59 160 85 41 27 85 55 98 62 31 20 28 46 -17 144 -45
96 -122 193 -271 337 -89 86 -100 95 -173 118 -81 26 -84 26 -182 15z m133
-81 l32 -11 -47 -31 c-62 -43 -128 -141 -144 -215 -7 -34 -10 -99 -7 -163 5
-91 10 -117 41 -192 l35 -87 -43 0 c-59 0 -175 60 -218 114 -59 72 -88 150
-94 249 l-6 88 44 86 c29 56 54 92 74 105 41 25 117 48 190 58 90 11 109 11
143 -1z m35 -296 l38 -21 -65 -41 c-35 -22 -67 -45 -71 -51 -3 -5 -10 -10 -16
-10 -12 0 -12 126 1 151 10 17 14 18 43 5 18 -7 49 -22 70 -33z"/>
<path d="M6398 5955 c-88 -19 -279 -116 -337 -170 -132 -124 -222 -344 -173
-423 16 -25 362 -132 427 -132 20 0 83 13 139 28 55 16 135 37 176 46 177 42
295 105 408 216 56 55 61 74 25 97 -20 14 -24 13 -50 -13 -42 -43 -113 -104
-121 -104 -4 0 -7 44 -8 98 0 84 -4 106 -30 167 -39 93 -81 124 -228 170 -120
37 -140 39 -228 20z m323 -137 c43 -36 52 -51 71 -111 17 -57 20 -85 15 -156
-3 -47 -8 -93 -12 -102 -3 -9 -23 -21 -44 -28 -52 -15 -54 -14 -47 12 3 13 1
84 -4 158 -8 126 -15 156 -55 252 -13 31 24 19 76 -25z m-333 -135 c6 -9 12
-25 12 -34 0 -10 3 -24 6 -33 5 -14 2 -14 -26 -4 -19 6 -66 9 -116 5 -46 -2
-84 -3 -84 0 0 2 7 17 15 33 26 51 162 74 193 33z"/>
<path d="M2543 5919 c-18 -18 -16 -47 6 -112 11 -32 19 -57 18 -57 -1 0 -33 9
-72 19 -40 11 -79 15 -90 11 -31 -11 -30 -46 1 -72 79 -66 120 -109 156 -161
22 -32 38 -60 36 -61 -1 -2 -25 -9 -53 -15 -74 -18 -95 -35 -95 -75 0 -28 8
-42 45 -74 54 -47 200 -111 217 -94 18 18 1 40 -63 79 -34 21 -74 48 -88 60
-30 25 -34 22 84 50 67 15 80 22 80 38 0 14 -8 21 -26 23 -21 2 -30 13 -48 56
-12 29 -38 72 -57 95 -20 22 -34 41 -31 41 2 0 24 -7 48 -15 65 -23 94 0 50
39 -16 15 -48 132 -39 142 2 2 55 -5 118 -16 62 -11 117 -17 121 -14 27 16 -2
35 -111 74 -137 48 -189 58 -207 39z"/>
<path d="M2816 5231 c-3 -4 -1 -23 4 -40 10 -35 -1 -160 -26 -301 -23 -130
-15 -120 -99 -120 -84 0 -193 -29 -505 -135 -286 -97 -379 -146 -455 -239 -28
-34 -35 -50 -27 -58 8 -8 16 -7 30 3 93 67 129 88 215 126 114 49 562 199 657
219 36 7 85 14 109 14 41 0 47 -4 127 -87 94 -99 104 -127 58 -169 -23 -22 -25
-30 -23 -95 l2 -71 -79 -32 c-141 -58 -315 -151 -499 -266 -99 -62 -206 -128
-237 -147 -55 -32 -73 -53 -46 -53 7 0 89 42 182 94 209 115 419 220 557 279
145 62 149 63 149 38 0 -11 21 -60 47 -108 l47 -88 0 -115 c1 -123 -10 -164
-57 -206 -12 -11 -52 -52 -89 -90 -37 -38 -77 -80 -90 -93 -13 -13 -117 -85
-233 -161 -269 -175 -400 -275 -586 -445 -136 -125 -164 -155 -141 -155 4 0 54
36 110 80 196 152 730 525 739 516 8 -8 -10 -34 -33 -47 -35 -18 -30 -60 9 -70
36 -10 154 -97 205 -153 30 -33 43 -57 52 -99 11 -55 11 -58 -28 -140 -22 -45
-47 -89 -57 -97 -26 -22 -64 -103 -81 -177 -12 -49 -17 -129 -20 -281 -2 -148
-6 -218 -15 -228 -20 -24 -4 -166 31 -284 96 -323 174 -459 279 -491 55 -16 62
-10 151 163 l74 143 27 -60 c16 -33 38 -89 50 -125 36 -108 67 -162 90 -158 29
4 44 39 63 143 10 50 36 146 58 214 35 104 43 122 52 106 44 -77 256 -381 274
-392 20 -14 25 -14 47 1 23 15 25 22 25 99 0 76 15 190 27 210 2 4 21 -7 41 -24
42 -37 90 -59 129 -59 35 0 87 31 108 64 l17 25 37 -23 c48 -31 128 -46 220 -43
68 2 76 4 95 30 27 37 34 144 12 207 -8 24 -14 45 -13 45 1 1 29 9 62 19 67 21
253 114 338 171 l56 37 32 -22 c41 -30 102 -125 119 -185 12 -42 11 -48 -3 -57
-10 -5 -17 -17 -17 -27 0 -17 13 -19 140 -26 136 -7 142 -7 190 17 l50 25 0
-86 c0 -47 4 -112 10 -144 8 -54 41 -117 60 -117 16 0 39 31 34 45 -5 13 8 15
77 15 46 0 102 5 124 10 22 5 40 8 41 7 1 -1 6 -64 12 -140 15 -195 31 -206 134
-99 36 37 81 84 99 105 31 37 33 38 43 18 44 -82 213 -183 358 -215 20 -5 30
-15 36 -39 6 -25 14 -32 33 -32 22 0 24 5 27 49 5 73 -23 214 -91 456 -32 118
-76 279 -97 358 -21 79 -42 148 -48 154 -8 8 -16 7 -28 -2 -27 -23 -9 -140 56
-365 71 -244 107 -383 116 -454 7 -53 7 -53 -17 -47 -13 4 -70 30 -127 57 -104
51 -126 71 -174 158 -33 59 -74 41 -173 -78 -32 -38 -61 -68 -65 -66 -4 2 -10
52 -12 110 -4 75 -11 113 -23 131 -20 30 -3 31 -277 -15 l-48 -8 0 152 c0 179
-5 212 -33 221 -16 5 -31 -5 -67 -44 -58 -63 -75 -68 -206 -64 l-61 2 -13 62
c-12 63 -46 124 -113 202 -28 31 -42 39 -81 43 -41 5 -52 2 -99 -29 -95 -63
-281 -156 -357 -179 -76 -22 -110 -42 -110 -64 0 -7 9 -32 20 -56 12 -28 20
-66 20 -104 l0 -60 -58 -3 c-107 -6 -139 4 -192 60 -57 60 -78 59 -105 -5 -26
-59 -44 -77 -77 -77 -27 0 -75 41 -141 120 -17 19 -21 20 -40 7 -26 -17 -63 -119
-72 -197 -13 -115 -10 -117 -129 57 -68 98 -114 174 -120 200 -8 33 -15 43 -31
43 -46 0 -160 -276 -177 -429 -2 -19 -8 -12 -27 35 -13 32 -41 89 -62 126 -44
75 -46 84 -23 116 17 25 13 52 -8 52 -14 0 -102 -118 -144 -193 -14 -26 -41 -84
-59 -129 -19 -46 -38 -84 -43 -86 -5 -1 -29 19 -54 46 -50 57 -119 208 -166 367
-51 174 -55 211 -36 420 7 83 17 205 23 272 11 135 28 186 84 256 19 23 51 79
71 125 37 81 37 84 27 148 -5 35 -19 79 -30 98 -30 48 -129 138 -183 165 -27
13 -48 27 -48 31 0 4 22 37 50 74 27 37 52 76 55 86 7 21 71 61 320 195 209 114
616 317 622 311 3 -2 -5 -35 -17 -72 -19 -64 -20 -70 -4 -81 27 -20 63 14 140
132 l69 105 205 102 c113 56 212 100 219 99 8 -2 21 5 28 14 17 25 -1 55 -33 55
-13 0 -35 7 -49 16 -54 35 -338 71 -647 81 -138 4 -198 10 -198 18 0 6 12 35 26
64 24 47 25 54 12 68 -12 12 -23 13 -52 5 -20 -6 -36 -7 -36 -3 0 26 24 70 41
74 15 4 20 12 17 29 -4 27 -31 35 -125 37 -35 0 -63 5 -63 10 0 34 11 37 101 33
49 -3 272 -1 495 3 341 6 406 10 411 22 3 8 -2 22 -11 31 -15 15 -61 17 -490 17
-437 0 -475 1 -493 18 -21 19 -53 23 -53 7 0 -5 -16 -10 -36 -10 -25 0 -35 4 -31
13 87 213 127 335 127 389 0 23 -4 28 -24 28 -21 0 -28 -11 -57 -91 -19 -50 -57
-148 -84 -217 l-51 -127 -123 -3 c-113 -2 -122 -1 -117 15 16 56 39 229 39 293
0 88 -21 150 -52 150 -11 0 -22 -4 -25 -9z"/>
<path d="M5162 5039 c-40 -4 -79 -12 -87 -19 -20 -17 -73 -113 -106 -195 -29
-69 -29 -70 -10 -86 17 -14 26 -15 68 -4 35 9 49 9 53 1 6 -13 37 -51 98 -117
l44 -48 -8 -149 -7 -149 -79 -12 c-43 -7 -87 -10 -97 -6 -36 11 -150 -138 -260
-338 -43 -78 -47 -107 -14 -107 19 0 69 67 199 266 l79 122 205 4 c113 3 213 8
222 12 14 6 32 -16 94 -110 42 -65 93 -151 112 -191 36 -72 37 -73 75 -73 37 0
212 54 231 72 6 5 6 12 0 18 -6 6 -45 3 -113 -10 -57 -11 -108 -17 -112 -14 -5
3 -9 13 -9 22 0 26 -82 166 -135 229 -33 41 -43 61 -39 78 5 21 2 22 -63 28 -37
4 -103 7 -145 7 l-77 0 6 123 c4 99 9 125 23 137 10 8 19 20 21 26 2 6 52 57
110 112 l106 101 39 -11 c21 -5 49 -19 62 -29 27 -21 62 -11 62 17 0 35 -93 186
-146 237 -16 15 -37 36 -46 46 -15 17 -30 19 -150 18 -73 -1 -166 -4 -206 -8z
m342 -112 c24 -23 51 -54 60 -69 l18 -27 -39 7 c-21 3 -54 7 -73 7 -29 0 -36 -4
-38 -23 -2 -15 3 -25 17 -30 18 -6 15 -11 -27 -47 -26 -21 -66 -61 -87 -87 l-40
-47 -7 45 c-4 25 -9 52 -12 60 -9 23 -44 16 -53 -10 l-8 -24 -48 43 -47 43 35
12 c25 8 35 17 33 28 -4 19 -27 20 -97 8 -41 -8 -43 -7 -36 14 4 12 21 46 38 75
37 62 28 60 245 62 l123 1 43 -41z"/>
<path d="M5012 4098 c-5 -7 -13 -32 -17 -56 -7 -46 5 -72 34 -72 9 0 22 -9 29
-20 14 -23 47 -25 82 -5 36 21 42 19 68 -20 15 -24 30 -35 47 -35 40 0 42 38 4
99 -35 57 -65 71 -107 51 -19 -8 -27 -9 -30 0 -7 19 -66 70 -83 70 -9 0 -21 -6
-27 -12z"/>
<path d="M6793 4023 c-25 -9 -12 -42 35 -89 27 -27 65 -58 85 -69 39 -20 48
-35 22 -35 -27 0 -143 -51 -160 -70 -28 -31 -13 -68 33 -76 44 -8 103 -36 122
-59 7 -8 18 -46 24 -83 9 -53 15 -68 30 -70 11 -3 26 4 33 14 17 23 17 96 0
137 -15 34 -89 107 -109 107 -23 0 7 17 61 34 71 23 101 44 101 71 0 28 -20 45
-96 83 -33 17 -80 46 -105 64 -57 44 -62 46 -76 41z"/>
<path d="M4448 3875 c-113 -11 -141 -22 -118 -50 16 -19 198 -21 315 -4 69 11
76 14 73 33 -3 19 -11 21 -83 26 -44 3 -128 1 -187 -5z"/>
<path d="M810 3855 c-9 -11 -11 -41 -6 -113 12 -168 -32 -357 -107 -460 -42
-56 -47 -96 -16 -112 16 -9 25 -8 40 6 18 16 26 17 82 5 79 -16 192 -68 241
-111 36 -32 37 -36 31 -77 -7 -51 5 -73 42 -73 18 0 28 9 39 35 7 19 14 45 14
58 0 27 52 116 105 182 26 32 52 50 86 62 52 19 69 44 48 70 -9 11 -24 14 -52
10 -30 -4 -48 1 -85 22 -26 16 -81 48 -122 72 -87 51 -185 143 -224 212 -22
37 -29 64 -32 118 -3 39 -9 80 -15 90 -12 23 -52 25 -69 4z m262 -468 c29 -19
81 -48 115 -66 l62 -33 -49 -65 c-28 -35 -55 -74 -61 -86 -7 -12 -13 -23 -14
-25 -2 -2 -23 12 -47 30 -53 41 -168 94 -237 111 -28 6 -51 15 -51 18 0 4 11
31 25 60 13 30 32 87 41 129 9 41 18 81 20 87 2 7 35 -18 73 -57 38 -38 94
-85 123 -103z"/>
<path d="M4909 3748 c-18 -34 -25 -405 -9 -464 23 -82 55 -73 110 32 20 38 40
69 44 69 5 0 15 -22 23 -50 16 -57 30 -89 56 -127 20 -30 54 -37 63 -13 4 8
11 15 18 15 6 0 47 21 91 47 174 101 175 101 197 80 22 -20 91 -63 155 -96 68
-34 72 -38 75 -75 2 -23 18 -39 18 -18 0 4 4 13 9 20 6 11 16 10 50 -4 56 -22
78 -5 36 28 -66 54 -165 120 -227 152 -36 20 -69 44 -72 54 -10 30 -49 43 -88
30 -52 -18 -148 -77 -213 -131 l-60 -50 -22 74 c-26 85 -28 102 -11 132 10 19
9 20 -4 9 -13 -10 -17 -10 -22 5 -4 11 6 35 29 69 35 51 43 89 18 89 -20 0
-117 -99 -161 -164 l-42 -63 -1 33 c-3 157 -10 316 -14 327 -7 19 -33 14 -46
-10z"/>
<path d="M5310 3677 c-14 -6 -34 -31 -45 -54 -11 -23 -25 -41 -30 -39 -12 4
-36 -20 -28 -28 4 -3 -1 -6 -9 -6 -11 0 -15 -8 -13 -25 3 -29 15 -47 15 -23 0
9 12 18 30 22 17 3 33 14 37 23 4 10 15 25 25 34 10 9 18 19 18 23 0 12 39 44
46 38 4 -4 4 1 1 11 -4 10 -7 23 -7 28 0 12 -10 11 -40 -4z"/>
<path d="M5155 3490 c-3 -5 -1 -10 4 -10 6 0 11 5 11 10 0 6 -2 10 -4 10 -3 0
-8 -4 -11 -10z"/>
<path d="M7030 3471 c-30 -10 -64 -22 -75 -28 -11 -6 -39 -16 -63 -23 -41 -10
-43 -13 -40 -43 3 -31 6 -33 108 -67 101 -34 105 -36 103 -63 -3 -43 -71 -145
-145 -220 -68 -67 -81 -93 -54 -103 55 -21 222 155 267 281 18 52 18 58 4 89
-10 20 -31 40 -58 53 l-42 20 47 21 c58 25 77 55 52 83 -21 23 -33 23 -104 0z"/>
<path d="M2920 3320 c0 -5 5 -10 11 -10 5 0 7 5 4 10 -3 6 -8 10 -11 10 -2 0
-4 -4 -4 -10z"/>
<path d="M5800 3261 c-7 -13 -7 -22 0 -26 13 -8 38 17 32 33 -6 18 -20 15 -32
-7z"/>
<path d="M4307 3193 c-15 -14 -5 -59 39 -176 66 -173 94 -266 94 -310 0 -50
15 -77 43 -77 23 0 56 18 285 149 79 46 146 81 148 79 8 -8 -38 -174 -56 -206
-24 -40 -25 -65 -5 -82 13 -11 26 -8 77 16 34 16 91 48 127 71 36 24 68 43 71
43 6 0 81 -317 80 -341 0 -23 33 -49 62 -49 13 0 46 17 73 37 46 36 185 196
185 212 0 5 -6 14 -14 21 -16 12 -42 -8 -168 -129 -32 -30 -59 -53 -61 -50 -3
5 -54 217 -63 269 -4 19 -7 55 -8 80 -2 82 -20 88 -104 32 -31 -21 -79 -51
-105 -66 -42 -24 -48 -26 -43 -10 20 67 44 229 36 244 -16 29 -39 31 -78 6
-38 -24 -152 -89 -257 -146 -33 -18 -79 -44 -102 -57 l-42 -24 -11 43 c-26
103 -49 164 -140 376 -21 49 -44 65 -63 45z"/>
<path d="M5684 3125 c-9 -14 -14 -28 -10 -32 3 -3 6 0 6 8 0 12 2 11 11 -1 8
-12 9 -10 4 9 -5 16 -4 21 4 17 6 -4 11 0 11 8 0 22 -7 20 -26 -9z"/>
<path d="M6750 3130 c0 -5 5 -10 11 -10 5 0 7 5 4 10 -3 6 -8 10 -11 10 -2 0
-4 -4 -4 -10z"/>
<path d="M6953 2842 c-7 -4 -32 -55 -56 -112 -41 -99 -46 -107 -89 -130 -25
-14 -56 -34 -67 -44 -21 -19 -21 -19 -37 20 -9 21 -27 80 -39 131 -27 109 -29
113 -60 113 -33 0 -62 -41 -135 -194 -67 -139 -71 -141 -88 -46 -15 78 -27
107 -56 125 -44 29 -54 22 -206 -144 l-94 -103 -12 84 c-7 46 -12 92 -11 102
2 23 -25 41 -48 32 -17 -6 -18 -18 -12 -141 7 -151 14 -175 56 -175 31 0 99
61 220 198 36 40 68 69 72 65 4 -4 12 -34 18 -66 14 -79 37 -124 69 -135 57
-20 77 1 158 166 26 51 49 90 52 87 3 -3 16 -37 28 -76 45 -143 101 -186 157
-119 21 25 31 29 55 24 25 -5 33 -1 55 28 14 18 37 60 52 93 26 58 27 59 38
35 5 -14 22 -52 35 -85 14 -33 40 -82 58 -110 42 -64 128 -149 146 -143 7 3
29 -5 48 -17 19 -12 71 -36 115 -54 44 -18 111 -46 148 -63 77 -33 106 -33
123 0 12 24 0 83 -26 132 -8 15 13 4 67 -34 91 -65 230 -146 249 -146 34 0 3
33 -134 146 -192 158 -253 198 -287 190 -35 -9 -33 -38 10 -132 19 -42 33 -79
31 -81 -2 -2 -44 12 -92 33 -150 61 -238 94 -256 94 -34 0 -132 193 -175 344
-28 101 -48 128 -80 108z"/>
<path d="M8010 2103 c-14 -9 -59 -44 -100 -78 -114 -94 -177 -132 -300 -180
-150 -59 -285 -132 -460 -247 -202 -132 -297 -191 -361 -223 -78 -40 -139 -92
-139 -120 0 -28 24 -39 41 -19 7 8 46 31 88 52 42 20 102 51 134 70 32 19 64
31 72 28 8 -3 16 3 19 12 8 23 294 212 421 279 56 29 157 75 225 103 138 57
187 87 310 189 47 39 93 71 102 71 10 0 22 9 28 19 13 25 13 27 -6 45 -20 21
-43 20 -74 -1z"/>
</g>
</svg>
