<svg width="320" height="320" viewBox="0 0 320 320" fill="none" xmlns="http://www.w3.org/2000/svg">
  <defs>
    <linearGradient id="aurora-bg" x1="40" y1="40" x2="280" y2="280" gradientUnits="userSpaceOnUse">
      <stop stop-color="#FFE3FF" />
      <stop offset="0.5" stop-color="#B7E4FF" />
      <stop offset="1" stop-color="#FFF3C2" />
    </linearGradient>
  </defs>
  <rect x="16" y="16" width="288" height="288" rx="48" fill="url(#aurora-bg)" stroke="#2C1D21" stroke-width="6" />
  <g transform="translate(0,10)" stroke="#2C1D21" stroke-width="6" stroke-linecap="round" stroke-linejoin="round">
    <ellipse cx="160" cy="210" rx="74" ry="88" fill="#FFF7D5" />
    <circle cx="160" cy="118" r="54" fill="#FFE8F5" />
    <path d="M124 100 108 60c-4-10-18-10-22 0l-18 44" fill="#FFE8F5" />
    <path d="M196 100 212 60c4-10 18-10 22 0l18 44" fill="#FFE8F5" />
    <path d="M124 100 108 60c-4-10-18-10-22 0l-18 44" />
    <path d="M196 100 212 60c4-10 18-10 22 0l18 44" />
    <ellipse cx="160" cy="210" rx="74" ry="88" fill="none" />
    <circle cx="160" cy="118" r="54" fill="none" />
    <path d="M96 210c-20 28-12 60 20 70" fill="none" />
    <path d="M224 210c20 28 12 60-20 70" fill="none" />
    <path d="M240 206c36-28 50-80 6-114" stroke="#9ED9FF" stroke-width="10" opacity="0.7" />
    <path d="M134 130c12-10 22-10 34 0" />
    <path d="M186 130c12-10 22-10 34 0" />
    <path d="M152 150c8 8 20 8 28 0" />
    <path d="M148 170c12 16 32 16 44 0" />
  </g>
</svg>
