<svg width="320" height="320" viewBox="0 0 320 320" fill="none" xmlns="http://www.w3.org/2000/svg">
  <defs>
    <pattern id="pixel-bg" width="16" height="16" patternUnits="userSpaceOnUse">
      <rect width="16" height="16" fill="#f5f5ff" />
      <rect width="8" height="8" fill="#d8dcff" />
      <rect x="8" y="8" width="8" height="8" fill="#d8dcff" />
    </pattern>
  </defs>
  <rect x="16" y="16" width="288" height="288" rx="48" fill="url(#pixel-bg)" stroke="#2C1D21" stroke-width="6" />
  <g transform="translate(0,12)" stroke="#2C1D21" stroke-width="6" stroke-linecap="round" stroke-linejoin="round">
    <ellipse cx="160" cy="210" rx="74" ry="88" fill="#E4F9FF" />
    <circle cx="160" cy="118" r="54" fill="#FFF" />
    <path d="M124 100 108 60c-4-10-18-10-22 0l-18 44" fill="#FFF" />
    <path d="M196 100 212 60c4-10 18-10 22 0l18 44" fill="#FFF" />
    <path d="M124 100 108 60c-4-10-18-10-22 0l-18 44" />
    <path d="M196 100 212 60c4-10 18-10 22 0l18 44" />
    <ellipse cx="160" cy="210" rx="74" ry="88" fill="none" />
    <circle cx="160" cy="118" r="54" fill="none" />
    <path d="M248 210c30-20 42-66 6-100" stroke="#8AE0FF" stroke-width="12" opacity="0.8" />
  </g>
  <g fill="#2C1D21">
    <rect x="128" y="128" width="28" height="12" rx="4" />
    <rect x="192" y="128" width="28" height="12" rx="4" />
    <rect x="148" y="156" width="64" height="12" rx="6" />
    <rect x="172" y="168" width="16" height="16" rx="6" />
  </g>
  <g fill="#9BE8FF" opacity="0.6">
    <rect x="116" y="150" width="18" height="18" rx="4" />
    <rect x="218" y="150" width="18" height="18" rx="4" />
  </g>
</svg>
