<svg width="512" height="512" viewBox="0 0 512 512" fill="none" xmlns="http://www.w3.org/2000/svg">
  <defs>
    <linearGradient id="catFill" x1="80" y1="120" x2="420" y2="420" gradientUnits="userSpaceOnUse">
      <stop offset="0" stop-color="#FFE4D1" />
      <stop offset="0.45" stop-color="#FFD1DC" />
      <stop offset="1" stop-color="#CBE2FF" />
    </linearGradient>
    <linearGradient id="cheekFill" x1="0" y1="0" x2="1" y2="1">
      <stop offset="0" stop-color="#FF99B4" stop-opacity="0.8" />
      <stop offset="1" stop-color="#FF7A90" stop-opacity="0.4" />
    </linearGradient>
    <filter id="roughShadow" x="-20%" y="-20%" width="140%" height="140%">
      <feDropShadow dx="0" dy="24" stdDeviation="12" flood-color="rgba(44,29,33,0.18)" />
    </filter>
  </defs>
  <rect x="62" y="82" width="388" height="348" rx="120" fill="url(#catFill)" stroke="#2C1D21" stroke-width="6" filter="url(#roughShadow)" />
  <path
    d="M166 180c-6-32 6-74 18-94 10 16 44 44 72 48 48 6 96-30 116-60 14 24 30 76 12 112 48 16 78 70 60 122-26 74-126 122-180 164-54-42-164-102-178-164-12-52 20-106 60-128z"
    fill="url(#catFill)" stroke="#2C1D21" stroke-width="6" stroke-linecap="round" stroke-linejoin="round" />
  <path
    d="M192 216c10-26 40-48 64-48s54 18 64 48c24 0 52 20 52 52 0 52-64 104-116 136-52-32-116-84-116-136 0-32 28-52 52-52z"
    fill="#FFF8EE" stroke="#2C1D21" stroke-width="5" stroke-linecap="round" stroke-linejoin="round" />
  <path d="M192 212c-18-20-32-48-30-88-18 16-34 46-34 80" stroke="#FF7A90" stroke-width="8" stroke-linecap="round" />
  <path d="M320 212c18-20 32-50 30-90 20 18 36 52 34 86" stroke="#7FB3FF" stroke-width="8" stroke-linecap="round" />
  <ellipse cx="228" cy="256" rx="30" ry="36" fill="#2C1D21" />
  <ellipse cx="288" cy="256" rx="30" ry="36" fill="#2C1D21" />
  <circle cx="220" cy="244" r="10" fill="#FFF8EE" />
  <circle cx="280" cy="244" r="10" fill="#FFF8EE" />
  <path d="M252 292c-14 0-26 12-26 26 0 18 16 38 30 38s32-20 32-38c0-14-10-26-22-26h-14z" fill="#FF7A90" stroke="#2C1D21" stroke-width="5" stroke-linecap="round" />
  <path d="M198 328c16 16 38 24 58 24s42-8 58-24" stroke="#2C1D21" stroke-width="5" stroke-linecap="round" />
  <path d="M142 310c-12 18-18 36-14 56 4 20 24 42 46 50" stroke="#FF7A90" stroke-width="6" stroke-linecap="round" stroke-dasharray="18 14" />
  <path d="M374 310c12 18 18 36 14 56-4 20-24 42-46 50" stroke="#7FB3FF" stroke-width="6" stroke-linecap="round" stroke-dasharray="18 14" />
  <ellipse cx="188" cy="288" rx="28" ry="20" fill="url(#cheekFill)" opacity="0.8" />
  <ellipse cx="330" cy="288" rx="28" ry="20" fill="url(#cheekFill)" opacity="0.8" />
  <path d="M118 238c-24-12-46-14-62-2 18 6 30 14 40 30" stroke="#2C1D21" stroke-width="5" stroke-linecap="round" stroke-linejoin="round" />
  <path d="M396 238c24-12 46-14 62-2-18 6-30 14-40 30" stroke="#2C1D21" stroke-width="5" stroke-linecap="round" stroke-linejoin="round" />
  <path d="M248 332c0 12 6 24 18 24" stroke="#FFF8EE" stroke-width="4" stroke-linecap="round" />
  <g stroke="#2C1D21" stroke-width="5" stroke-linecap="round">
    <path d="M190 360c-18 8-40 18-58 34" stroke-dasharray="12 12" />
    <path d="M320 360c18 8 40 18 58 34" stroke-dasharray="12 12" />
  </g>
  <g stroke="#2C1D21" stroke-width="5" stroke-linecap="round" stroke-linejoin="round" fill="none">
    <path d="M248 204c4 4 12 6 20 6s16-2 20-6" />
    <path d="M230 208c-4-6-8-10-12-12" />
    <path d="M306 208c4-6 8-10 12-12" />
  </g>
  <g fill="#FFD166" stroke="#2C1D21" stroke-width="4" stroke-linecap="round">
    <path d="M84 140 96 120l20 12-12 20z" />
    <path d="M404 120 416 100l22 10-12 20z" />
    <path d="M86 392l14-22 20 16-14 22z" />
  </g>
  <g fill="#7FB3FF" stroke="#2C1D21" stroke-width="4" stroke-linecap="round">
    <circle cx="116" cy="108" r="10" />
    <circle cx="420" cy="396" r="12" />
    <circle cx="384" cy="92" r="8" />
  </g>
  <path d="M214 326c-20 0-34 10-44 26" stroke="#2C1D21" stroke-width="4" stroke-linecap="round" stroke-dasharray="10 8" />
  <path d="M298 326c20 0 34 10 44 26" stroke="#2C1D21" stroke-width="4" stroke-linecap="round" stroke-dasharray="10 8" />
</svg>
