<svg width="320" height="320" viewBox="0 0 320 320" fill="none" xmlns="http://www.w3.org/2000/svg">
  <defs>
    <linearGradient id="sakura-bg" x1="80" y1="40" x2="240" y2="280" gradientUnits="userSpaceOnUse">
      <stop stop-color="#FFF0F6" />
      <stop offset="1" stop-color="#FFE4D6" />
    </linearGradient>
  </defs>
  <rect x="16" y="16" width="288" height="288" rx="48" fill="url(#sakura-bg)" stroke="#2C1D21" stroke-width="6" />
  <g transform="translate(0,12)" stroke="#2C1D21" stroke-width="6" stroke-linecap="round" stroke-linejoin="round">
    <ellipse cx="160" cy="210" rx="74" ry="88" fill="#FFE9EE" />
    <circle cx="160" cy="118" r="54" fill="#FFF4F6" />
    <path d="M124 100 108 60c-4-10-18-10-22 0l-18 44" fill="#FFF4F6" />
    <path d="M196 100 212 60c4-10 18-10 22 0l18 44" fill="#FFF4F6" />
    <path d="M124 100 108 60c-4-10-18-10-22 0l-18 44" />
    <path d="M196 100 212 60c4-10 18-10 22 0l18 44" />
    <ellipse cx="160" cy="210" rx="74" ry="88" fill="none" />
    <circle cx="160" cy="118" r="54" fill="none" />
    <path d="M146 134c12-12 26-12 38 0" />
    <path d="M134 158c18 14 34 14 52 0" />
    <path d="M152 182c8 12 24 12 32 0" />
  </g>
  <g fill="#FFB7C8" opacity="0.7">
    <path d="M86 180c18-6 28 12 12 24-16-12-18-18-12-24Z" />
    <path d="M242 188c16-10 28 8 16 22-16-8-24-14-16-22Z" />
    <circle cx="110" cy="238" r="10" />
    <circle cx="214" cy="238" r="10" />
  </g>
</svg>
