<svg xmlns="http://www.w3.org/2000/svg" width="0" height="0" style="position:absolute">
  <defs>
    <style>
      .sketch{fill:none;stroke:currentColor;stroke-width:2;stroke-linecap:round;stroke-linejoin:round;vector-effect:non-scaling-stroke}
    </style>

    <!-- HEADS (viewBox 0 0 100 100) -->
    <symbol id="head-1" viewBox="0 0 100 100">
      <path class="sketch" d="M20 40 Q18 25 30 20 L40 28 L50 22 L60 28 L70 20 Q82 25 80 40
                               Q82 70 50 78 Q18 70 20 40 Z"/>
    </symbol>
    <symbol id="head-2" viewBox="0 0 100 100">
      <path class="sketch" d="M18 44 Q25 18 50 18 Q75 18 82 44 Q85 70 50 82 Q15 70 18 44 Z"/>
      <path class="sketch" d="M32 24 40 16 48 26M68 24 60 16 52 26"/>
    </symbol>
    <symbol id="head-3" viewBox="0 0 100 100">
      <ellipse class="sketch" cx="50" cy="50" rx="32" ry="28"/>
      <path class="sketch" d="M30 27 40 20 45 32M70 27 60 20 55 32"/>
    </symbol>

    <!-- EYES -->
    <symbol id="eyes-1" viewBox="0 0 100 100">
      <path class="sketch" d="M34 48 q4 -4 8 0M58 48 q4 -4 8 0"/>
    </symbol>
    <symbol id="eyes-2" viewBox="0 0 100 100">
      <circle class="sketch" cx="38" cy="50" r="3"/>
      <circle class="sketch" cx="62" cy="50" r="3"/>
    </symbol>
    <symbol id="eyes-3" viewBox="0 0 100 100">
      <path class="sketch" d="M33 49 q5 -6 10 0M57 49 q5 -6 10 0M36 50 l4 0M60 50 l4 0"/>
    </symbol>

    <!-- NOSE + MOUTH -->
    <symbol id="muzzle-1" viewBox="0 0 100 100">
      <path class="sketch" d="M48 56 l4 0M50 56 v4"/>
      <path class="sketch" d="M50 60 q-6 6 -12 0M50 60 q6 6 12 0"/>
    </symbol>
    <symbol id="muzzle-2" viewBox="0 0 100 100">
      <path class="sketch" d="M47 55 l6 0M50 55 v6"/>
      <path class="sketch" d="M38 62 q5 6 14 0 q5 6 10 0"/>
    </symbol>

    <!-- WHISKERS -->
    <symbol id="whisk-1" viewBox="0 0 100 100">
      <path class="sketch" d="M18 58 l22 -4M18 64 l22 0M18 70 l22 4M82 58 l-22 -4M82 64 l-22 0M82 70 l-22 4"/>
    </symbol>
    <symbol id="whisk-2" viewBox="0 0 100 100">
      <path class="sketch" d="M16 62 l24 -2M16 66 l24 2M84 62 l-24 -2M84 66 l-24 2"/>
    </symbol>

    <!-- BODIES -->
    <symbol id="body-1" viewBox="0 0 120 100">
      <path class="sketch" d="M20 60 q15 -22 40 -22 q25 0 40 22 q2 20 -40 20 q-42 0 -40 -20 Z"/>
      <path class="sketch" d="M36 80 q4 10 10 12M84 80 q-4 10 -10 12"/>
    </symbol>
    <symbol id="body-2" viewBox="0 0 120 100">
      <path class="sketch" d="M24 64 q12 -26 36 -26 q24 0 36 26 q2 18 -36 18 q-38 0 -36 -18 Z"/>
      <path class="sketch" d="M54 70 q-6 8 0 16 q6 -8 0 -16Z"/>
    </symbol>
    <symbol id="body-3" viewBox="0 0 120 100">
      <ellipse class="sketch" cx="60" cy="70" rx="42" ry="20"/>
      <path class="sketch" d="M30 78 q6 8 12 10M90 78 q-6 8 -12 10"/>
    </symbol>

    <!-- TAILS -->
    <symbol id="tail-1" viewBox="0 0 120 100">
      <path class="sketch" d="M98 66 q14 -6 12 -18 q-2 -12 -18 -10 q-10 2 -12 8"/>
    </symbol>
    <symbol id="tail-2" viewBox="0 0 120 100">
      <path class="sketch" d="M100 68 q18 0 12 16 q-6 14 -26 8 q-10 -4 -10 -12"/>
    </symbol>
    <symbol id="tail-3" viewBox="0 0 120 100">
      <path class="sketch" d="M96 64 q10 -12 0 -22 q-10 -10 -24 0 q-8 6 -6 12"/>
    </symbol>

    <!-- PATTERNS -->
    <symbol id="stripes" viewBox="0 0 120 100">
      <path class="sketch" d="M44 56 l-8 8M56 52 l-8 8M68 52 l-8 8M80 56 l-8 8"/>
    </symbol>
    <symbol id="spots" viewBox="0 0 120 100">
      <circle class="sketch" cx="48" cy="64" r="4"/>
      <circle class="sketch" cx="68" cy="72" r="5"/>
      <circle class="sketch" cx="58" cy="80" r="3"/>
    </symbol>
  </defs>
</svg>
